<svg xmlns="http://www.w3.org/2000/svg" xmlns:xlink="http://www.w3.org/1999/xlink" contentStyleType="text/css" data-diagram-type="STATE" height="885px" preserveAspectRatio="none" style="width:296px;height:885px;background:#FFFFFF;" version="1.1" viewBox="0 0 296 885" width="296px" zoomAndPan="magnify"><defs/><g><ellipse cx="148.28" cy="16" fill="#222222" rx="10" ry="10" style="stroke:#222222;stroke-width:1;"/><g id="A1"><rect fill="#F1F1F1" height="50.2656" rx="12.5" ry="12.5" style="stroke:#181818;stroke-width:0.5;" width="140.6563" x="77.95" y="86"/><line style="stroke:#181818;stroke-width:0.5;" x1="77.95" x2="218.6063" y1="112.2969" y2="112.2969"/><text fill="#000000" font-family="sans-serif" font-size="14" lengthAdjust="spacing" textLength="18.4844" x="139.0359" y="103.9951">A1</text><text fill="#000000" font-family="sans-serif" font-size="12" lengthAdjust="spacing" textLength="120.6563" x="82.95" y="128.4355">tandwiel detecteren</text></g><g id="A2"><rect fill="#F1F1F1" height="50.2656" rx="12.5" ry="12.5" style="stroke:#181818;stroke-width:0.5;" width="133.7773" x="81.39" y="196.27"/><line style="stroke:#181818;stroke-width:0.5;" x1="81.39" x2="215.1673" y1="222.5669" y2="222.5669"/><text fill="#000000" font-family="sans-serif" font-size="14" lengthAdjust="spacing" textLength="18.4844" x="139.0365" y="214.2651">A2</text><text fill="#000000" font-family="sans-serif" font-size="12" lengthAdjust="spacing" textLength="113.7773" x="86.39" y="238.7055">tandwiel oppakken</text></g><g id="A3"><rect fill="#F1F1F1" height="50.2656" rx="12.5" ry="12.5" style="stroke:#181818;stroke-width:0.5;" width="158.6855" x="68.93" y="306.53"/><line style="stroke:#181818;stroke-width:0.5;" x1="68.93" x2="227.6155" y1="332.8269" y2="332.8269"/><text fill="#000000" font-family="sans-serif" font-size="14" lengthAdjust="spacing" textLength="18.4844" x="139.0306" y="324.5251">A3</text><text fill="#000000" font-family="sans-serif" font-size="12" lengthAdjust="spacing" textLength="138.6855" x="73.93" y="348.9655">tandwiel schoonmaken</text></g><g id="A4"><rect fill="#F1F1F1" height="50.2656" rx="12.5" ry="12.5" style="stroke:#181818;stroke-width:0.5;" width="282.5527" x="7" y="416.8"/><line style="stroke:#181818;stroke-width:0.5;" x1="7" x2="289.5527" y1="443.0969" y2="443.0969"/><text fill="#000000" font-family="sans-serif" font-size="14" lengthAdjust="spacing" textLength="18.4844" x="139.0342" y="434.7951">A4</text><text fill="#000000" font-family="sans-serif" font-size="12" lengthAdjust="spacing" textLength="262.5527" x="12" y="459.2355">tandwiel op ontbraammachine positioneren</text></g><g id="A5"><rect fill="#F1F1F1" height="50.2656" rx="12.5" ry="12.5" style="stroke:#181818;stroke-width:0.5;" width="130.9941" x="82.78" y="527.06"/><line style="stroke:#181818;stroke-width:0.5;" x1="82.78" x2="213.7741" y1="553.3569" y2="553.3569"/><text fill="#000000" font-family="sans-serif" font-size="14" lengthAdjust="spacing" textLength="18.4844" x="139.0349" y="545.0551">A5</text><text fill="#000000" font-family="sans-serif" font-size="12" lengthAdjust="spacing" textLength="110.9941" x="87.78" y="569.4955">tandwiel klemmen</text></g><g id="A6"><rect fill="#F1F1F1" height="50.2656" rx="12.5" ry="12.5" style="stroke:#181818;stroke-width:0.5;" width="141.1953" x="77.68" y="637.33"/><line style="stroke:#181818;stroke-width:0.5;" x1="77.68" x2="218.8753" y1="663.6269" y2="663.6269"/><text fill="#000000" font-family="sans-serif" font-size="14" lengthAdjust="spacing" textLength="18.4844" x="139.0355" y="655.3251">A6</text><text fill="#000000" font-family="sans-serif" font-size="12" lengthAdjust="spacing" textLength="121.1953" x="82.68" y="679.7655">tandwiel ontbramen</text></g><g id="A7"><rect fill="#F1F1F1" height="50.2656" rx="12.5" ry="12.5" style="stroke:#181818;stroke-width:0.5;" width="128.2871" x="84.13" y="747.59"/><line style="stroke:#181818;stroke-width:0.5;" x1="84.13" x2="212.4171" y1="773.8869" y2="773.8869"/><text fill="#000000" font-family="sans-serif" font-size="14" lengthAdjust="spacing" textLength="18.4844" x="139.0314" y="765.5851">A7</text><text fill="#000000" font-family="sans-serif" font-size="12" lengthAdjust="spacing" textLength="108.2871" x="89.13" y="790.0255">tandwiel afvoeren</text></g><ellipse cx="148.28" cy="868.86" fill="none" rx="11" ry="11" style="stroke:#222222;stroke-width:1;"/><ellipse cx="148.28" cy="868.86" fill="#222222" rx="6" ry="6" style="stroke:#222222;stroke-width:1;"/><!--link *start* to A1--><g class="link" data-entity-1=".start." data-entity-2="A1" data-source-line="1" data-uid="lnk4" id="link_.start._A1"><path d="M148.28,26.27 C148.28,39.98 148.28,60.14 148.28,79.61" fill="none" id="*start*-to-A1" style="stroke:#181818;stroke-width:1;"/><polygon fill="#181818" points="148.28,85.61,152.28,76.61,148.28,80.61,144.28,76.61,148.28,85.61" style="stroke:#181818;stroke-width:1;"/></g><!--link A1 to A2--><g class="link" data-entity-1="A1" data-entity-2="A2" data-source-line="3" data-uid="lnk6" id="link_A1_A2"><path d="M148.28,136.7 C148.28,154.42 148.28,172.23 148.28,189.93" fill="none" id="A1-to-A2" style="stroke:#181818;stroke-width:1;"/><polygon fill="#181818" points="148.28,195.93,152.28,186.93,148.28,190.93,144.28,186.93,148.28,195.93" style="stroke:#181818;stroke-width:1;"/></g><!--link A2 to A3--><g class="link" data-entity-1="A2" data-entity-2="A3" data-source-line="5" data-uid="lnk8" id="link_A2_A3"><path d="M148.28,246.97 C148.28,264.68 148.28,282.5 148.28,300.19" fill="none" id="A2-to-A3" style="stroke:#181818;stroke-width:1;"/><polygon fill="#181818" points="148.28,306.19,152.28,297.19,148.28,301.19,144.28,297.19,148.28,306.19" style="stroke:#181818;stroke-width:1;"/></g><!--link A3 to A4--><g class="link" data-entity-1="A3" data-entity-2="A4" data-source-line="7" data-uid="lnk10" id="link_A3_A4"><path d="M148.28,357.23 C148.28,374.95 148.28,392.76 148.28,410.46" fill="none" id="A3-to-A4" style="stroke:#181818;stroke-width:1;"/><polygon fill="#181818" points="148.28,416.46,152.28,407.46,148.28,411.46,144.28,407.46,148.28,416.46" style="stroke:#181818;stroke-width:1;"/></g><!--link A4 to A5--><g class="link" data-entity-1="A4" data-entity-2="A5" data-source-line="9" data-uid="lnk12" id="link_A4_A5"><path d="M148.28,467.5 C148.28,485.22 148.28,503.03 148.28,520.73" fill="none" id="A4-to-A5" style="stroke:#181818;stroke-width:1;"/><polygon fill="#181818" points="148.28,526.73,152.28,517.73,148.28,521.73,144.28,517.73,148.28,526.73" style="stroke:#181818;stroke-width:1;"/></g><!--link A5 to A6--><g class="link" data-entity-1="A5" data-entity-2="A6" data-source-line="11" data-uid="lnk14" id="link_A5_A6"><path d="M148.28,577.76 C148.28,595.48 148.28,613.3 148.28,630.99" fill="none" id="A5-to-A6" style="stroke:#181818;stroke-width:1;"/><polygon fill="#181818" points="148.28,636.99,152.28,627.99,148.28,631.99,144.28,627.99,148.28,636.99" style="stroke:#181818;stroke-width:1;"/></g><!--link A6 to A7--><g class="link" data-entity-1="A6" data-entity-2="A7" data-source-line="13" data-uid="lnk16" id="link_A6_A7"><path d="M148.28,688.03 C148.28,705.75 148.28,723.56 148.28,741.26" fill="none" id="A6-to-A7" style="stroke:#181818;stroke-width:1;"/><polygon fill="#181818" points="148.28,747.26,152.28,738.26,148.28,742.26,144.28,738.26,148.28,747.26" style="stroke:#181818;stroke-width:1;"/></g><!--link A7 to *end*--><g class="link" data-entity-1="A7" data-entity-2=".end." data-source-line="15" data-uid="lnk18" id="link_A7_.end."><path d="M148.28,797.97 C148.28,817.36 148.28,837.58 148.28,851.75" fill="none" id="A7-to-*end*" style="stroke:#181818;stroke-width:1;"/><polygon fill="#181818" points="148.28,857.75,152.28,848.75,148.28,852.75,144.28,848.75,148.28,857.75" style="stroke:#181818;stroke-width:1;"/></g><!--SRC=[LOqx3eD030Lxdy8r4WL_AKKadoEYSC0HAzWrWbLo_OXrizGpRzwh6B4idqWLK8KFZ1pcdvCDPuaoHJaaN20fDL2T6RhllAuNhuqtG4sUEAT5DNXEJcDE2zJYBO8QuljWzfwdnGN1NKyNdGRxRctN0NNvRjt4-ujtndkW_jPDqMJqPWn0GsxmvwjsCIJXLOn_]--></g></svg>