<svg xmlns="http://www.w3.org/2000/svg" xmlns:xlink="http://www.w3.org/1999/xlink" contentStyleType="text/css" data-diagram-type="STATE" height="63px" preserveAspectRatio="none" style="width:204px;height:63px;background:#FFFFFF;" version="1.1" viewBox="0 0 204 63" width="204px" zoomAndPan="magnify"><defs/><g><g id="tandwiel"><rect fill="#F1F1F1" height="50" rx="12.5" ry="12.5" style="stroke:#181818;stroke-width:0.5;" width="79.6709" x="61.16" y="7"/><line style="stroke:#181818;stroke-width:0.5;" x1="61.16" x2="140.8309" y1="33.2969" y2="33.2969"/><text fill="#000000" font-family="sans-serif" font-size="14" lengthAdjust="spacing" textLength="59.6709" x="71.16" y="24.9951">tandwiel</text></g><ellipse cx="16" cy="32" fill="#222222" rx="10" ry="10" style="stroke:#222222;stroke-width:1;"/><ellipse cx="187" cy="32" fill="none" rx="11" ry="11" style="stroke:#222222;stroke-width:1;"/><ellipse cx="187" cy="32" fill="#222222" rx="6" ry="6" style="stroke:#222222;stroke-width:1;"/><!--link *start* to tandwiel--><g class="link" data-entity-1=".start." data-entity-2="tandwiel" data-source-line="1" data-uid="lnk3" id="link_.start._tandwiel"><path d="M26.29,32 C37.77,32 43.25,32 54.73,32" fill="none" id="*start*-to-tandwiel" style="stroke:#181818;stroke-width:1;"/><polygon fill="#181818" points="60.73,32,51.73,28,55.73,32,51.73,36,60.73,32" style="stroke:#181818;stroke-width:1;"/></g><!--link tandwiel to *end*--><g class="link" data-entity-1="tandwiel" data-entity-2=".end." data-source-line="5" data-uid="lnk5" id="link_tandwiel_.end."><path d="M141.31,32 C152.73,32 158.16,32 169.58,32" fill="none" id="tandwiel-to-*end*" style="stroke:#181818;stroke-width:1;"/><polygon fill="#181818" points="175.58,32,166.58,28,170.58,32,166.58,36,175.58,32" style="stroke:#181818;stroke-width:1;"/></g><!--SRC=[YzQALT0jqhLJA4dCIodFJCtXAYv9B4c5Swkvk6gvO1o8ocYjM000]--></g></svg>