<svg xmlns="http://www.w3.org/2000/svg" xmlns:xlink="http://www.w3.org/1999/xlink" contentStyleType="text/css" data-diagram-type="STATE" height="63px" preserveAspectRatio="none" style="width:282px;height:63px;background:#FFFFFF;" version="1.1" viewBox="0 0 282 63" width="282px" zoomAndPan="magnify"><defs/><g><g id="tandwielDetecteren"><rect fill="#F1F1F1" height="50" rx="12.5" ry="12.5" style="stroke:#181818;stroke-width:0.5;" width="158.209" x="60.9" y="7"/><line style="stroke:#181818;stroke-width:0.5;" x1="60.9" x2="219.109" y1="33.2969" y2="33.2969"/><text fill="#000000" font-family="sans-serif" font-size="14" lengthAdjust="spacing" textLength="138.209" x="70.9" y="24.9951">tandwielDetecteren</text></g><ellipse cx="16" cy="32" fill="#222222" rx="10" ry="10" style="stroke:#222222;stroke-width:1;"/><ellipse cx="265" cy="32" fill="none" rx="11" ry="11" style="stroke:#222222;stroke-width:1;"/><ellipse cx="265" cy="32" fill="#222222" rx="6" ry="6" style="stroke:#222222;stroke-width:1;"/><!--link *start* to tandwielDetecteren--><g class="link" data-entity-1=".start." data-entity-2="tandwielDetecteren" data-source-line="1" data-uid="lnk3" id="link_.start._tandwielDetecteren"><path d="M26.17,32 C37.58,32 43,32 54.41,32" fill="none" id="*start*-to-tandwielDetecteren" style="stroke:#181818;stroke-width:1;"/><polygon fill="#181818" points="60.41,32,51.41,28,55.41,32,51.41,36,60.41,32" style="stroke:#181818;stroke-width:1;"/></g><!--link tandwielDetecteren to *end*--><g class="link" data-entity-1="tandwielDetecteren" data-entity-2=".end." data-source-line="6" data-uid="lnk5" id="link_tandwielDetecteren_.end."><path d="M219.59,32 C230.94,32 236.29,32 247.65,32" fill="none" id="tandwielDetecteren-to-*end*" style="stroke:#181818;stroke-width:1;"/><polygon fill="#181818" points="253.65,32,244.65,28,248.65,32,244.65,36,253.65,32" style="stroke:#181818;stroke-width:1;"/></g><!--SRC=[YzQALT0jqhLJA4dCIodFJCrnIIr9JIv9BKhDu-8gBaaiISKYKyt5LSk5AGmnA5eh5W00]--></g></svg>